<svg width="36" height="35" viewBox="0 0 36 35" fill="none" xmlns="http://www.w3.org/2000/svg">
<path d="M21.2939 17.425C21.2939 19.2545 19.811 20.7375 17.9817 20.7375C16.1523 20.7375 14.6694 19.2545 14.6694 17.425C14.6694 15.5956 16.1523 14.1125 17.9817 14.1125C19.811 14.1125 21.2939 15.5956 21.2939 17.425Z" fill="white"/>
<path d="M25.7278 11.5642C25.5686 11.1327 25.3146 10.7422 24.9845 10.4216C24.664 10.0915 24.2737 9.83749 23.842 9.67825C23.4918 9.54226 22.9659 9.38039 21.997 9.33629C20.949 9.28849 20.6348 9.27819 17.9816 9.27819C15.3281 9.27819 15.0139 9.28823 13.9661 9.33602C12.9973 9.38039 12.4711 9.54226 12.1212 9.67825C11.6895 9.83749 11.2989 10.0915 10.9786 10.4216C10.6486 10.7422 10.3945 11.1325 10.2351 11.5642C10.0991 11.9144 9.9372 12.4406 9.89311 13.4095C9.84531 14.4573 9.83502 14.7715 9.83502 17.4251C9.83502 20.0785 9.84531 20.3927 9.89311 21.4408C9.9372 22.4096 10.0991 22.9357 10.2351 23.2858C10.3945 23.7176 10.6483 24.1078 10.9784 24.4284C11.2989 24.7585 11.6892 25.0125 12.1209 25.1718C12.4711 25.308 12.9973 25.4699 13.9661 25.514C15.0139 25.5618 15.3278 25.5718 17.9813 25.5718C20.6351 25.5718 20.9493 25.5618 21.9968 25.514C22.9656 25.4699 23.4918 25.308 23.842 25.1718C24.7086 24.8375 25.3936 24.1525 25.7278 23.2858C25.8638 22.9357 26.0257 22.4096 26.0701 21.4408C26.1179 20.3927 26.1279 20.0785 26.1279 17.4251C26.1279 14.7715 26.1179 14.4573 26.0701 13.4095C26.026 12.4406 25.8641 11.9144 25.7278 11.5642V11.5642ZM17.9816 22.5277C15.1633 22.5277 12.8788 20.2432 12.8788 17.4249C12.8788 14.6065 15.1633 12.3221 17.9816 12.3221C20.7996 12.3221 23.0841 14.6065 23.0841 17.4249C23.0841 20.2432 20.7996 22.5277 17.9816 22.5277ZM23.2859 13.3129C22.6273 13.3129 22.0934 12.7789 22.0934 12.1203C22.0934 11.4618 22.6273 10.9278 23.2859 10.9278C23.9444 10.9278 24.4783 11.4618 24.4783 12.1203C24.4781 12.7789 23.9444 13.3129 23.2859 13.3129Z" fill="white"/>
<path d="M17.9816 0.119507C8.42575 0.119507 0.676575 7.869 0.676575 17.4252C0.676575 26.9814 8.42575 34.7309 17.9816 34.7309C27.5374 34.7309 35.2866 26.9814 35.2866 17.4252C35.2866 7.869 27.5374 0.119507 17.9816 0.119507ZM27.8585 21.5222C27.8104 22.58 27.6422 23.3022 27.3967 23.9344C26.8804 25.2692 25.8253 26.3244 24.4905 26.8407C23.8586 27.0863 23.1362 27.2542 22.0786 27.3025C21.019 27.3509 20.6805 27.3625 17.9818 27.3625C15.2829 27.3625 14.9447 27.3509 13.8848 27.3025C12.8273 27.2542 12.1048 27.0863 11.4729 26.8407C10.8096 26.5911 10.2092 26.2001 9.71274 25.6944C9.20735 25.1982 8.81628 24.5975 8.56675 23.9344C8.32118 23.3025 8.15298 22.58 8.10492 21.5224C8.05607 20.4625 8.04472 20.124 8.04472 17.4252C8.04472 14.7265 8.05607 14.388 8.10466 13.3283C8.15272 12.2704 8.32066 11.5482 8.56622 10.916C8.81576 10.253 9.20708 9.65222 9.71274 9.15605C10.2089 8.65036 10.8096 8.25929 11.4727 8.00974C12.1048 7.76416 12.827 7.59622 13.8848 7.5479C14.9444 7.49957 15.2829 7.48795 17.9816 7.48795C20.6802 7.48795 21.0187 7.49957 22.0784 7.54816C23.1362 7.59622 23.8583 7.76416 24.4905 8.00948C25.1535 8.25902 25.7542 8.65036 26.2507 9.15605C26.7561 9.65249 27.1474 10.253 27.3967 10.916C27.6425 11.5482 27.8104 12.2704 27.8588 13.3283C27.9071 14.388 27.9184 14.7265 27.9184 17.4252C27.9184 20.124 27.9071 20.4625 27.8585 21.5222V21.5222Z" fill="white"/>
</svg>
