<svg width="36" height="36" viewBox="0 0 36 36" fill="none" xmlns="http://www.w3.org/2000/svg">
<path fill-rule="evenodd" clip-rule="evenodd" d="M17.53 35.0572C27.2116 35.0572 35.06 27.2094 35.06 17.5286C35.06 7.84782 27.2116 0 17.53 0C7.84845 0 0 7.84782 0 17.5286C0 27.2094 7.84845 35.0572 17.53 35.0572ZM12.964 9H23.742C24.5281 9 25.282 9.35187 25.8378 9.9782C26.3937 10.6045 26.7059 11.454 26.7059 12.3398V22.0555C26.7059 22.9413 26.3937 23.7907 25.8378 24.4171C25.282 25.0434 24.5281 25.3953 23.742 25.3953H12.964C12.1779 25.3953 11.424 25.0434 10.8681 24.4171C10.3123 23.7907 10 22.9413 10 22.0555V12.3398C10 11.454 10.3123 10.6045 10.8681 9.9782C11.424 9.35187 12.1779 9 12.964 9ZM23.742 10.8217H12.964C12.6066 10.8217 12.264 10.9816 12.0113 11.2663C11.7586 11.551 11.6167 11.9372 11.6167 12.3398V12.7375L16.8737 16.9638C17.3064 17.3111 17.8244 17.4978 18.3557 17.4978C18.8869 17.4978 19.4049 17.3111 19.8376 16.9638L25.0892 12.7375V12.3398C25.0892 11.9372 24.9473 11.551 24.6946 11.2663C24.442 10.9816 24.0993 10.8217 23.742 10.8217ZM12.0113 23.1289C12.264 23.4136 12.6066 23.5736 12.964 23.5736H23.742C24.0993 23.5736 24.442 23.4136 24.6946 23.1289C24.9473 22.8442 25.0892 22.4581 25.0892 22.0555V14.9782L20.778 18.4485C20.0705 19.0182 19.2226 19.3245 18.353 19.3245C17.4833 19.3245 16.6355 19.0182 15.9279 18.4485L11.6167 14.9782V22.0555C11.6167 22.4581 11.7586 22.8442 12.0113 23.1289Z" fill="white"/>
</svg>
