<svg width="35" height="35" viewBox="0 0 35 35" fill="none" xmlns="http://www.w3.org/2000/svg">
<path fill-rule="evenodd" clip-rule="evenodd" d="M34.61 17.3057C34.61 26.8634 26.8623 34.6114 17.305 34.6114C7.74771 34.6114 0 26.8634 0 17.3057C0 7.74803 7.74771 0 17.305 0C26.8623 0 34.61 7.74803 34.61 17.3057ZM24.5347 11.5905C25.2654 11.4911 25.9621 11.2687 26.6099 10.9399C26.1257 11.7694 25.5133 12.4978 24.8068 13.0808C24.8138 13.2579 24.8173 13.4365 24.8173 13.6158C24.8173 19.0827 21.1831 25.386 14.5377 25.386C12.4976 25.386 10.598 24.7014 9 23.5273C9.2821 23.5658 9.5704 23.5853 9.86139 23.5853C11.5545 23.5853 13.1121 22.9242 14.3489 21.8145C12.7675 21.7809 11.4336 20.5848 10.9739 18.9417C11.1943 18.9899 11.4204 19.0155 11.6537 19.0155C11.9827 19.0155 12.3025 18.9652 12.6053 18.8702C10.9529 18.4904 9.707 16.8186 9.707 14.8143C9.707 14.797 9.707 14.7794 9.70727 14.7619C10.1941 15.0725 10.7516 15.2585 11.3436 15.2798C10.3747 14.5382 9.73637 13.2715 9.73637 11.8367C9.73637 11.0787 9.91474 10.3676 10.2257 9.75675C12.0077 12.2602 14.67 13.907 17.6726 14.0795C17.6107 13.7765 17.5786 13.4609 17.5786 13.1367C17.5786 10.8525 19.1966 9 21.1915 9C22.2312 9 23.1702 9.50224 23.8293 10.3059C24.6519 10.1205 25.4254 9.77649 26.1235 9.30233C25.8533 10.2689 25.2807 11.0787 24.5347 11.5905Z" fill="white"/>
</svg>
