<svg width="32" height="32" viewBox="0 0 32 32" fill="none" xmlns="http://www.w3.org/2000/svg">
<circle cx="16" cy="16" r="16" fill="#4EB052"/>
<g clip-path="url(#clip0_51_3)">
<path fill-rule="evenodd" clip-rule="evenodd" d="M19.61 17.588C19.4113 17.4886 18.4373 17.01 18.256 16.9433C18.0747 16.8773 17.9427 16.8446 17.81 17.0433C17.678 17.2406 17.2987 17.6873 17.1833 17.8193C17.0673 17.952 16.952 17.968 16.754 17.8693C16.556 17.7693 15.9173 17.5606 15.1607 16.886C14.572 16.3606 14.174 15.712 14.0587 15.5133C13.9433 15.3153 14.046 15.208 14.1453 15.1093C14.2347 15.0206 14.3433 14.878 14.4427 14.7626C14.542 14.6466 14.5747 14.564 14.6407 14.4313C14.7073 14.2993 14.674 14.184 14.624 14.0846C14.5747 13.9853 14.1787 13.01 14.0133 12.6133C13.8527 12.2273 13.6893 12.28 13.568 12.2733C13.452 12.268 13.32 12.2666 13.188 12.2666C13.056 12.2666 12.8413 12.316 12.66 12.5146C12.478 12.7126 11.9667 13.192 11.9667 14.1673C11.9667 15.142 12.676 16.084 12.7753 16.2166C12.8747 16.3486 14.172 18.35 16.1593 19.208C16.6327 19.412 17.0013 19.534 17.2887 19.6246C17.7633 19.776 18.1953 19.7546 18.5367 19.7033C18.9167 19.6466 19.7087 19.224 19.874 18.7613C20.0387 18.2986 20.0387 17.902 19.9893 17.8193C19.94 17.7366 19.808 17.6873 19.6093 17.588H19.61ZM15.9953 22.5233H15.9927C14.8123 22.5235 13.6536 22.2062 12.638 21.6046L12.398 21.462L9.90333 22.1166L10.5693 19.6846L10.4127 19.4353C9.75276 18.3849 9.40353 17.1692 9.40533 15.9286C9.40667 12.2953 12.3627 9.3393 15.998 9.3393C17.758 9.3393 19.4127 10.026 20.6567 11.2713C21.2703 11.8824 21.7566 12.609 22.0875 13.4092C22.4185 14.2095 22.5874 15.0674 22.5847 15.9333C22.5833 19.5666 19.6273 22.5233 15.9953 22.5233V22.5233ZM21.6033 10.3253C20.8688 9.58592 19.9948 8.99966 19.0321 8.6005C18.0693 8.20134 17.0369 7.99722 15.9947 7.99997C11.6253 7.99997 8.068 11.5566 8.06667 15.928C8.06464 17.3191 8.42958 18.6862 9.12467 19.8913L8 24L12.2027 22.8973C13.3652 23.5307 14.6681 23.8626 15.992 23.8626H15.9953C20.3647 23.8626 23.922 20.306 23.9233 15.934C23.9266 14.8922 23.7232 13.86 23.325 12.8973C22.9267 11.9346 22.3416 11.0604 21.6033 10.3253" fill="white"/>
</g>
<defs>
<clipPath id="clip0_51_3">
<rect width="16" height="16" fill="white" transform="translate(8 8)"/>
</clipPath>
</defs>
</svg>
